<mxfile host="app.diagrams.net" modified="2020-10-12T13:33:21.706Z" agent="5.0 (Windows NT 10.0; Win64; x64) AppleWebKit/537.36 (KHTML, like Gecko) Chrome/86.0.4240.75 Safari/537.36 Edg/86.0.622.38" etag="J5Ua8Niyh0oT9N-WNJrf" version="13.7.9" type="github">
  <diagram id="GM9pdz0dE-JDNyrQ_IsH" name="Page-1">
    <mxGraphModel dx="1747" dy="552" grid="1" gridSize="10" guides="1" tooltips="1" connect="1" arrows="1" fold="1" page="1" pageScale="1" pageWidth="827" pageHeight="1169" math="0" shadow="0">
      <root>
        <mxCell id="0" />
        <mxCell id="1" parent="0" />
        <mxCell id="AUkNBDVFdlOXR4ARLZL_-1" value="도서" style="rounded=0;whiteSpace=wrap;html=1;" parent="1" vertex="1">
          <mxGeometry x="440" y="340" width="120" height="40" as="geometry" />
        </mxCell>
        <mxCell id="AUkNBDVFdlOXR4ARLZL_-2" value="이용자" style="rounded=0;whiteSpace=wrap;html=1;" parent="1" vertex="1">
          <mxGeometry x="100" y="340" width="120" height="40" as="geometry" />
        </mxCell>
        <mxCell id="AUkNBDVFdlOXR4ARLZL_-4" value="관리자" style="rounded=0;whiteSpace=wrap;html=1;" parent="1" vertex="1">
          <mxGeometry x="440" y="160" width="120" height="40" as="geometry" />
        </mxCell>
        <mxCell id="AUkNBDVFdlOXR4ARLZL_-6" value="카테고리" style="rounded=0;whiteSpace=wrap;html=1;" parent="1" vertex="1">
          <mxGeometry x="440" y="520" width="120" height="40" as="geometry" />
        </mxCell>
        <mxCell id="AUkNBDVFdlOXR4ARLZL_-8" value="비회원" style="rounded=0;whiteSpace=wrap;html=1;" parent="1" vertex="1">
          <mxGeometry x="170" y="490" width="100" height="35" as="geometry" />
        </mxCell>
        <mxCell id="AUkNBDVFdlOXR4ARLZL_-9" value="회원" style="rounded=0;whiteSpace=wrap;html=1;" parent="1" vertex="1">
          <mxGeometry x="50" y="492.5" width="90" height="30" as="geometry" />
        </mxCell>
        <mxCell id="AUkNBDVFdlOXR4ARLZL_-10" value="" style="triangle;whiteSpace=wrap;html=1;rotation=-90;" parent="1" vertex="1">
          <mxGeometry x="137.5" y="392.5" width="50" height="75" as="geometry" />
        </mxCell>
        <mxCell id="AUkNBDVFdlOXR4ARLZL_-12" value="" style="verticalLabelPosition=bottom;verticalAlign=top;html=1;shape=mxgraph.basic.frame;dx=10;fillColor=#000000;" parent="1" vertex="1">
          <mxGeometry x="720" y="340" width="130" height="40" as="geometry" />
        </mxCell>
        <mxCell id="AUkNBDVFdlOXR4ARLZL_-13" value="copy본" style="text;html=1;align=center;verticalAlign=middle;resizable=0;points=[];autosize=1;" parent="1" vertex="1">
          <mxGeometry x="755" y="350" width="50" height="20" as="geometry" />
        </mxCell>
        <mxCell id="AUkNBDVFdlOXR4ARLZL_-15" value="" style="endArrow=none;html=1;entryX=0.5;entryY=1;entryDx=0;entryDy=0;exitX=1;exitY=0.5;exitDx=0;exitDy=0;" parent="1" source="AUkNBDVFdlOXR4ARLZL_-10" target="AUkNBDVFdlOXR4ARLZL_-2" edge="1">
          <mxGeometry width="50" height="50" relative="1" as="geometry">
            <mxPoint x="380" y="370" as="sourcePoint" />
            <mxPoint x="430" y="320" as="targetPoint" />
          </mxGeometry>
        </mxCell>
        <mxCell id="AUkNBDVFdlOXR4ARLZL_-16" value="" style="endArrow=none;html=1;exitX=0;exitY=0.75;exitDx=0;exitDy=0;entryX=0.5;entryY=0;entryDx=0;entryDy=0;" parent="1" source="AUkNBDVFdlOXR4ARLZL_-10" target="AUkNBDVFdlOXR4ARLZL_-8" edge="1">
          <mxGeometry width="50" height="50" relative="1" as="geometry">
            <mxPoint x="380" y="370" as="sourcePoint" />
            <mxPoint x="430" y="320" as="targetPoint" />
          </mxGeometry>
        </mxCell>
        <mxCell id="AUkNBDVFdlOXR4ARLZL_-17" value="" style="endArrow=none;html=1;exitX=0.5;exitY=0;exitDx=0;exitDy=0;entryX=0;entryY=0.25;entryDx=0;entryDy=0;" parent="1" source="AUkNBDVFdlOXR4ARLZL_-9" target="AUkNBDVFdlOXR4ARLZL_-10" edge="1">
          <mxGeometry width="50" height="50" relative="1" as="geometry">
            <mxPoint x="380" y="370" as="sourcePoint" />
            <mxPoint x="430" y="320" as="targetPoint" />
          </mxGeometry>
        </mxCell>
        <mxCell id="AUkNBDVFdlOXR4ARLZL_-25" value="분류" style="rhombus;whiteSpace=wrap;html=1;" parent="1" vertex="1">
          <mxGeometry x="460" y="427.5" width="80" height="40" as="geometry" />
        </mxCell>
        <mxCell id="AUkNBDVFdlOXR4ARLZL_-26" value="" style="shape=link;html=1;exitX=0.5;exitY=1;exitDx=0;exitDy=0;width=-4;entryX=0.5;entryY=0;entryDx=0;entryDy=0;labelBorderColor=#000000;strokeWidth=6;" parent="1" source="AUkNBDVFdlOXR4ARLZL_-25" target="AUkNBDVFdlOXR4ARLZL_-6" edge="1">
          <mxGeometry width="100" relative="1" as="geometry">
            <mxPoint x="500" y="480" as="sourcePoint" />
            <mxPoint x="530" y="500" as="targetPoint" />
            <Array as="points" />
          </mxGeometry>
        </mxCell>
        <mxCell id="AUkNBDVFdlOXR4ARLZL_-32" value="" style="endArrow=none;html=1;exitX=1;exitY=0.5;exitDx=0;exitDy=0;" parent="1" source="AUkNBDVFdlOXR4ARLZL_-1" edge="1">
          <mxGeometry width="50" height="50" relative="1" as="geometry">
            <mxPoint x="570" y="370" as="sourcePoint" />
            <mxPoint x="590" y="360" as="targetPoint" />
            <Array as="points" />
          </mxGeometry>
        </mxCell>
        <mxCell id="AUkNBDVFdlOXR4ARLZL_-36" value="정리" style="rhombus;whiteSpace=wrap;html=1;" parent="1" vertex="1">
          <mxGeometry x="460" y="240" width="80" height="50" as="geometry" />
        </mxCell>
        <mxCell id="AUkNBDVFdlOXR4ARLZL_-40" value="" style="shape=link;html=1;exitX=0.5;exitY=1;exitDx=0;exitDy=0;entryX=0.5;entryY=0;entryDx=0;entryDy=0;width=-7;strokeWidth=6;" parent="1" source="AUkNBDVFdlOXR4ARLZL_-4" target="AUkNBDVFdlOXR4ARLZL_-36" edge="1">
          <mxGeometry width="100" relative="1" as="geometry">
            <mxPoint x="380" y="340" as="sourcePoint" />
            <mxPoint x="480" y="340" as="targetPoint" />
          </mxGeometry>
        </mxCell>
        <mxCell id="AUkNBDVFdlOXR4ARLZL_-41" value="" style="rhombus;whiteSpace=wrap;html=1;fillColor=#000000;" parent="1" vertex="1">
          <mxGeometry x="580" y="335" width="80" height="50" as="geometry" />
        </mxCell>
        <mxCell id="AUkNBDVFdlOXR4ARLZL_-46" value="copy" style="rhombus;whiteSpace=wrap;html=1;" parent="1" vertex="1">
          <mxGeometry x="595" y="345" width="50" height="30" as="geometry" />
        </mxCell>
        <mxCell id="AUkNBDVFdlOXR4ARLZL_-55" value="분류번호" style="ellipse;whiteSpace=wrap;html=1;" parent="1" vertex="1">
          <mxGeometry x="620" y="492.5" width="70" height="35" as="geometry" />
        </mxCell>
        <mxCell id="AUkNBDVFdlOXR4ARLZL_-58" value="이름" style="ellipse;whiteSpace=wrap;html=1;" parent="1" vertex="1">
          <mxGeometry x="680" y="520" width="70" height="35" as="geometry" />
        </mxCell>
        <mxCell id="AUkNBDVFdlOXR4ARLZL_-60" value="위치" style="ellipse;whiteSpace=wrap;html=1;" parent="1" vertex="1">
          <mxGeometry x="620" y="555" width="70" height="40" as="geometry" />
        </mxCell>
        <mxCell id="AUkNBDVFdlOXR4ARLZL_-61" value="" style="endArrow=none;html=1;entryX=1;entryY=0.5;entryDx=0;entryDy=0;exitX=0;exitY=0.5;exitDx=0;exitDy=0;" parent="1" source="AUkNBDVFdlOXR4ARLZL_-55" target="AUkNBDVFdlOXR4ARLZL_-6" edge="1">
          <mxGeometry width="50" height="50" relative="1" as="geometry">
            <mxPoint x="400" y="370" as="sourcePoint" />
            <mxPoint x="450" y="320" as="targetPoint" />
          </mxGeometry>
        </mxCell>
        <mxCell id="AUkNBDVFdlOXR4ARLZL_-62" value="" style="endArrow=none;html=1;entryX=1;entryY=0.5;entryDx=0;entryDy=0;exitX=0;exitY=0.5;exitDx=0;exitDy=0;" parent="1" source="AUkNBDVFdlOXR4ARLZL_-58" target="AUkNBDVFdlOXR4ARLZL_-6" edge="1">
          <mxGeometry width="50" height="50" relative="1" as="geometry">
            <mxPoint x="400" y="370" as="sourcePoint" />
            <mxPoint x="450" y="320" as="targetPoint" />
          </mxGeometry>
        </mxCell>
        <mxCell id="AUkNBDVFdlOXR4ARLZL_-63" value="" style="endArrow=none;html=1;exitX=0;exitY=0.5;exitDx=0;exitDy=0;" parent="1" source="AUkNBDVFdlOXR4ARLZL_-60" edge="1">
          <mxGeometry width="50" height="50" relative="1" as="geometry">
            <mxPoint x="400" y="370" as="sourcePoint" />
            <mxPoint x="560" y="540" as="targetPoint" />
          </mxGeometry>
        </mxCell>
        <mxCell id="AUkNBDVFdlOXR4ARLZL_-64" value="copy방식" style="ellipse;whiteSpace=wrap;html=1;" parent="1" vertex="1">
          <mxGeometry x="690" y="230" width="70" height="40" as="geometry" />
        </mxCell>
        <mxCell id="AUkNBDVFdlOXR4ARLZL_-65" value="copy날짜" style="ellipse;whiteSpace=wrap;html=1;" parent="1" vertex="1">
          <mxGeometry x="620" y="417.5" width="70" height="40" as="geometry" />
        </mxCell>
        <mxCell id="AUkNBDVFdlOXR4ARLZL_-66" value="COPYID" style="ellipse;whiteSpace=wrap;html=1;" parent="1" vertex="1">
          <mxGeometry x="725" y="190" width="80" height="40" as="geometry" />
        </mxCell>
        <mxCell id="AUkNBDVFdlOXR4ARLZL_-68" value="" style="endArrow=none;dashed=1;html=1;" parent="1" edge="1">
          <mxGeometry width="50" height="50" relative="1" as="geometry">
            <mxPoint x="737" y="220" as="sourcePoint" />
            <mxPoint x="800" y="220" as="targetPoint" />
          </mxGeometry>
        </mxCell>
        <mxCell id="AUkNBDVFdlOXR4ARLZL_-69" value="" style="endArrow=none;html=1;" parent="1" edge="1">
          <mxGeometry width="50" height="50" relative="1" as="geometry">
            <mxPoint x="760" y="340" as="sourcePoint" />
            <mxPoint x="725" y="270" as="targetPoint" />
          </mxGeometry>
        </mxCell>
        <mxCell id="AUkNBDVFdlOXR4ARLZL_-70" value="" style="endArrow=none;html=1;exitX=0.415;exitY=0.017;exitDx=0;exitDy=0;exitPerimeter=0;" parent="1" source="AUkNBDVFdlOXR4ARLZL_-12" edge="1">
          <mxGeometry width="50" height="50" relative="1" as="geometry">
            <mxPoint x="720" y="280" as="sourcePoint" />
            <mxPoint x="770" y="230" as="targetPoint" />
          </mxGeometry>
        </mxCell>
        <mxCell id="AUkNBDVFdlOXR4ARLZL_-71" value="" style="endArrow=none;html=1;exitX=0.5;exitY=0;exitDx=0;exitDy=0;" parent="1" source="AUkNBDVFdlOXR4ARLZL_-65" edge="1">
          <mxGeometry width="50" height="50" relative="1" as="geometry">
            <mxPoint x="590" y="455" as="sourcePoint" />
            <mxPoint x="620" y="385" as="targetPoint" />
          </mxGeometry>
        </mxCell>
        <mxCell id="AUkNBDVFdlOXR4ARLZL_-72" value="등록일" style="ellipse;whiteSpace=wrap;html=1;" parent="1" vertex="1">
          <mxGeometry x="30" y="542.5" width="70" height="40" as="geometry" />
        </mxCell>
        <mxCell id="AUkNBDVFdlOXR4ARLZL_-73" value="마일리지" style="ellipse;whiteSpace=wrap;html=1;" parent="1" vertex="1">
          <mxGeometry x="120" y="542.5" width="70" height="45" as="geometry" />
        </mxCell>
        <mxCell id="AUkNBDVFdlOXR4ARLZL_-74" value="회원번호" style="ellipse;whiteSpace=wrap;html=1;" parent="1" vertex="1">
          <mxGeometry x="-40" y="500" width="70" height="47.5" as="geometry" />
        </mxCell>
        <mxCell id="AUkNBDVFdlOXR4ARLZL_-75" value="" style="endArrow=none;html=1;entryX=1;entryY=0;entryDx=0;entryDy=0;" parent="1" target="AUkNBDVFdlOXR4ARLZL_-74" edge="1">
          <mxGeometry width="50" height="50" relative="1" as="geometry">
            <mxPoint x="50" y="500" as="sourcePoint" />
            <mxPoint x="450" y="320" as="targetPoint" />
            <Array as="points" />
          </mxGeometry>
        </mxCell>
        <mxCell id="AUkNBDVFdlOXR4ARLZL_-76" value="" style="endArrow=none;html=1;" parent="1" source="AUkNBDVFdlOXR4ARLZL_-72" edge="1">
          <mxGeometry width="50" height="50" relative="1" as="geometry">
            <mxPoint x="40" y="572.5" as="sourcePoint" />
            <mxPoint x="90" y="522.5" as="targetPoint" />
          </mxGeometry>
        </mxCell>
        <mxCell id="AUkNBDVFdlOXR4ARLZL_-78" value="" style="endArrow=none;html=1;" parent="1" source="AUkNBDVFdlOXR4ARLZL_-73" edge="1">
          <mxGeometry width="50" height="50" relative="1" as="geometry">
            <mxPoint x="60" y="575" as="sourcePoint" />
            <mxPoint x="110" y="525" as="targetPoint" />
          </mxGeometry>
        </mxCell>
        <mxCell id="AUkNBDVFdlOXR4ARLZL_-79" value="대여" style="rhombus;whiteSpace=wrap;html=1;" parent="1" vertex="1">
          <mxGeometry x="280" y="380" width="90" height="55" as="geometry" />
        </mxCell>
        <mxCell id="AUkNBDVFdlOXR4ARLZL_-83" value="기증" style="rhombus;whiteSpace=wrap;html=1;" parent="1" vertex="1">
          <mxGeometry x="290" y="310" width="80" height="55" as="geometry" />
        </mxCell>
        <mxCell id="AUkNBDVFdlOXR4ARLZL_-84" value="" style="shape=flexArrow;html=1;exitX=0;exitY=0.5;exitDx=0;exitDy=0;entryX=1;entryY=0.5;entryDx=0;entryDy=0;endWidth=13;endSize=3.44;width=7;fillColor=#330000;" parent="1" source="AUkNBDVFdlOXR4ARLZL_-1" target="AUkNBDVFdlOXR4ARLZL_-83" edge="1">
          <mxGeometry width="100" relative="1" as="geometry">
            <mxPoint x="364" y="337" as="sourcePoint" />
            <mxPoint x="290" y="370" as="targetPoint" />
          </mxGeometry>
        </mxCell>
        <mxCell id="AUkNBDVFdlOXR4ARLZL_-85" value="" style="endArrow=none;html=1;entryX=1;entryY=0.5;entryDx=0;entryDy=0;exitX=0;exitY=0.5;exitDx=0;exitDy=0;" parent="1" source="AUkNBDVFdlOXR4ARLZL_-83" target="AUkNBDVFdlOXR4ARLZL_-2" edge="1">
          <mxGeometry width="50" height="50" relative="1" as="geometry">
            <mxPoint x="400" y="370" as="sourcePoint" />
            <mxPoint x="450" y="320" as="targetPoint" />
            <Array as="points" />
          </mxGeometry>
        </mxCell>
        <mxCell id="AUkNBDVFdlOXR4ARLZL_-86" value="" style="endArrow=none;html=1;entryX=0;entryY=0.5;entryDx=0;entryDy=0;exitX=1;exitY=0.5;exitDx=0;exitDy=0;" parent="1" source="AUkNBDVFdlOXR4ARLZL_-2" target="AUkNBDVFdlOXR4ARLZL_-79" edge="1">
          <mxGeometry width="50" height="50" relative="1" as="geometry">
            <mxPoint x="440" y="360" as="sourcePoint" />
            <mxPoint x="450" y="320" as="targetPoint" />
          </mxGeometry>
        </mxCell>
        <mxCell id="AUkNBDVFdlOXR4ARLZL_-89" value="" style="endArrow=classic;html=1;entryX=1;entryY=0.5;entryDx=0;entryDy=0;" parent="1" target="AUkNBDVFdlOXR4ARLZL_-79" edge="1">
          <mxGeometry width="50" height="50" relative="1" as="geometry">
            <mxPoint x="440" y="360" as="sourcePoint" />
            <mxPoint x="450" y="320" as="targetPoint" />
          </mxGeometry>
        </mxCell>
        <mxCell id="AUkNBDVFdlOXR4ARLZL_-90" value="관리자번호" style="ellipse;whiteSpace=wrap;html=1;" parent="1" vertex="1">
          <mxGeometry x="490" y="60" width="90" height="40" as="geometry" />
        </mxCell>
        <mxCell id="AUkNBDVFdlOXR4ARLZL_-91" value="이름" style="ellipse;whiteSpace=wrap;html=1;" parent="1" vertex="1">
          <mxGeometry x="384" y="50" width="90" height="40" as="geometry" />
        </mxCell>
        <mxCell id="AUkNBDVFdlOXR4ARLZL_-92" value="전화번호" style="ellipse;whiteSpace=wrap;html=1;" parent="1" vertex="1">
          <mxGeometry x="310" y="100" width="90" height="40" as="geometry" />
        </mxCell>
        <mxCell id="AUkNBDVFdlOXR4ARLZL_-93" value="" style="endArrow=none;html=1;exitX=0.381;exitY=-0.033;exitDx=0;exitDy=0;entryX=0.389;entryY=1.05;entryDx=0;entryDy=0;entryPerimeter=0;exitPerimeter=0;" parent="1" source="AUkNBDVFdlOXR4ARLZL_-4" target="AUkNBDVFdlOXR4ARLZL_-90" edge="1">
          <mxGeometry width="50" height="50" relative="1" as="geometry">
            <mxPoint x="330" y="190" as="sourcePoint" />
            <mxPoint x="380" y="140" as="targetPoint" />
          </mxGeometry>
        </mxCell>
        <mxCell id="AUkNBDVFdlOXR4ARLZL_-94" value="" style="endArrow=none;html=1;exitX=0.25;exitY=0;exitDx=0;exitDy=0;entryX=0.774;entryY=0.95;entryDx=0;entryDy=0;entryPerimeter=0;" parent="1" source="AUkNBDVFdlOXR4ARLZL_-4" target="AUkNBDVFdlOXR4ARLZL_-91" edge="1">
          <mxGeometry width="50" height="50" relative="1" as="geometry">
            <mxPoint x="290" y="240" as="sourcePoint" />
            <mxPoint x="340" y="190" as="targetPoint" />
          </mxGeometry>
        </mxCell>
        <mxCell id="AUkNBDVFdlOXR4ARLZL_-95" value="" style="endArrow=none;html=1;exitX=1.011;exitY=0.717;exitDx=0;exitDy=0;entryX=0;entryY=0;entryDx=0;entryDy=0;exitPerimeter=0;" parent="1" source="AUkNBDVFdlOXR4ARLZL_-92" target="AUkNBDVFdlOXR4ARLZL_-4" edge="1">
          <mxGeometry width="50" height="50" relative="1" as="geometry">
            <mxPoint x="390" y="240" as="sourcePoint" />
            <mxPoint x="440" y="190" as="targetPoint" />
          </mxGeometry>
        </mxCell>
        <mxCell id="AUkNBDVFdlOXR4ARLZL_-97" value="인수인계" style="rhombus;whiteSpace=wrap;html=1;" parent="1" vertex="1">
          <mxGeometry x="625" y="90" width="125" height="60" as="geometry" />
        </mxCell>
        <mxCell id="AUkNBDVFdlOXR4ARLZL_-98" value="주소" style="ellipse;whiteSpace=wrap;html=1;" parent="1" vertex="1">
          <mxGeometry x="-60" y="295" width="90" height="50" as="geometry" />
        </mxCell>
        <mxCell id="AUkNBDVFdlOXR4ARLZL_-99" value="전화번호" style="ellipse;whiteSpace=wrap;html=1;" parent="1" vertex="1">
          <mxGeometry x="30" y="210" width="90" height="50" as="geometry" />
        </mxCell>
        <mxCell id="AUkNBDVFdlOXR4ARLZL_-100" value="이름" style="ellipse;whiteSpace=wrap;html=1;" parent="1" vertex="1">
          <mxGeometry x="-50" y="240" width="90" height="50" as="geometry" />
        </mxCell>
        <mxCell id="AUkNBDVFdlOXR4ARLZL_-103" value="" style="endArrow=none;html=1;entryX=0.989;entryY=0.767;entryDx=0;entryDy=0;entryPerimeter=0;" parent="1" source="AUkNBDVFdlOXR4ARLZL_-2" target="AUkNBDVFdlOXR4ARLZL_-98" edge="1">
          <mxGeometry width="50" height="50" relative="1" as="geometry">
            <mxPoint x="400" y="370" as="sourcePoint" />
            <mxPoint x="450" y="320" as="targetPoint" />
          </mxGeometry>
        </mxCell>
        <mxCell id="AUkNBDVFdlOXR4ARLZL_-104" value="" style="endArrow=none;html=1;entryX=0.5;entryY=1;entryDx=0;entryDy=0;exitX=0.639;exitY=-0.083;exitDx=0;exitDy=0;exitPerimeter=0;" parent="1" source="AUkNBDVFdlOXR4ARLZL_-2" target="AUkNBDVFdlOXR4ARLZL_-99" edge="1">
          <mxGeometry width="50" height="50" relative="1" as="geometry">
            <mxPoint x="400" y="370" as="sourcePoint" />
            <mxPoint x="450" y="320" as="targetPoint" />
          </mxGeometry>
        </mxCell>
        <mxCell id="AUkNBDVFdlOXR4ARLZL_-105" value="" style="endArrow=none;html=1;exitX=0.941;exitY=0.75;exitDx=0;exitDy=0;exitPerimeter=0;" parent="1" source="AUkNBDVFdlOXR4ARLZL_-90" edge="1">
          <mxGeometry width="50" height="50" relative="1" as="geometry">
            <mxPoint x="470" y="80" as="sourcePoint" />
            <mxPoint x="500" y="90" as="targetPoint" />
            <Array as="points" />
          </mxGeometry>
        </mxCell>
        <mxCell id="AUkNBDVFdlOXR4ARLZL_-106" value="ISA" style="text;html=1;strokeColor=none;fillColor=none;align=center;verticalAlign=middle;whiteSpace=wrap;rounded=0;" parent="1" vertex="1">
          <mxGeometry x="140" y="427.5" width="40" height="20" as="geometry" />
        </mxCell>
        <mxCell id="AUkNBDVFdlOXR4ARLZL_-109" value="" style="endArrow=none;html=1;entryX=1;entryY=1;entryDx=0;entryDy=0;" parent="1" target="AUkNBDVFdlOXR4ARLZL_-100" edge="1">
          <mxGeometry width="50" height="50" relative="1" as="geometry">
            <mxPoint x="140" y="340" as="sourcePoint" />
            <mxPoint x="80" y="190" as="targetPoint" />
            <Array as="points">
              <mxPoint x="50" y="300" />
            </Array>
          </mxGeometry>
        </mxCell>
        <mxCell id="AUkNBDVFdlOXR4ARLZL_-111" value="" style="endArrow=none;html=1;exitX=0;exitY=0.674;exitDx=0;exitDy=0;exitPerimeter=0;entryX=0.971;entryY=0.674;entryDx=0;entryDy=0;entryPerimeter=0;" parent="1" source="AUkNBDVFdlOXR4ARLZL_-74" target="AUkNBDVFdlOXR4ARLZL_-74" edge="1">
          <mxGeometry width="50" height="50" relative="1" as="geometry">
            <mxPoint x="-20" y="577.5" as="sourcePoint" />
            <mxPoint x="30" y="527.5" as="targetPoint" />
            <Array as="points" />
          </mxGeometry>
        </mxCell>
        <mxCell id="AUkNBDVFdlOXR4ARLZL_-114" value="" style="shape=link;html=1;entryX=0.165;entryY=0.667;entryDx=0;entryDy=0;entryPerimeter=0;width=38;" parent="1" target="AUkNBDVFdlOXR4ARLZL_-97" edge="1">
          <mxGeometry width="100" relative="1" as="geometry">
            <mxPoint x="560" y="179.5" as="sourcePoint" />
            <mxPoint x="660" y="179.5" as="targetPoint" />
            <Array as="points" />
          </mxGeometry>
        </mxCell>
        <mxCell id="AUkNBDVFdlOXR4ARLZL_-116" value="제목" style="ellipse;whiteSpace=wrap;html=1;" parent="1" vertex="1">
          <mxGeometry x="380" y="270" width="80" height="50" as="geometry" />
        </mxCell>
        <mxCell id="AUkNBDVFdlOXR4ARLZL_-117" value="출판사" style="ellipse;whiteSpace=wrap;html=1;" parent="1" vertex="1">
          <mxGeometry x="560" y="290" width="80" height="45" as="geometry" />
        </mxCell>
        <mxCell id="AUkNBDVFdlOXR4ARLZL_-118" value="도서번호" style="ellipse;whiteSpace=wrap;html=1;" parent="1" vertex="1">
          <mxGeometry x="540" y="230" width="90" height="50" as="geometry" />
        </mxCell>
        <mxCell id="AUkNBDVFdlOXR4ARLZL_-119" value="" style="endArrow=none;html=1;exitX=0.611;exitY=-0.033;exitDx=0;exitDy=0;exitPerimeter=0;" parent="1" source="AUkNBDVFdlOXR4ARLZL_-1" edge="1">
          <mxGeometry width="50" height="50" relative="1" as="geometry">
            <mxPoint x="510" y="330" as="sourcePoint" />
            <mxPoint x="560" y="280" as="targetPoint" />
          </mxGeometry>
        </mxCell>
        <mxCell id="AUkNBDVFdlOXR4ARLZL_-120" value="" style="endArrow=none;html=1;exitX=0.333;exitY=0;exitDx=0;exitDy=0;exitPerimeter=0;" parent="1" source="AUkNBDVFdlOXR4ARLZL_-1" edge="1">
          <mxGeometry width="50" height="50" relative="1" as="geometry">
            <mxPoint x="400" y="360" as="sourcePoint" />
            <mxPoint x="450" y="310" as="targetPoint" />
            <Array as="points">
              <mxPoint x="450" y="310" />
            </Array>
          </mxGeometry>
        </mxCell>
        <mxCell id="AUkNBDVFdlOXR4ARLZL_-121" value="" style="endArrow=none;html=1;entryX=0;entryY=1;entryDx=0;entryDy=0;" parent="1" target="AUkNBDVFdlOXR4ARLZL_-117" edge="1">
          <mxGeometry width="50" height="50" relative="1" as="geometry">
            <mxPoint x="552" y="340" as="sourcePoint" />
            <mxPoint x="450" y="310" as="targetPoint" />
          </mxGeometry>
        </mxCell>
        <mxCell id="AUkNBDVFdlOXR4ARLZL_-122" value="" style="endArrow=none;html=1;" parent="1" edge="1">
          <mxGeometry width="50" height="50" relative="1" as="geometry">
            <mxPoint x="553" y="270" as="sourcePoint" />
            <mxPoint x="620" y="270" as="targetPoint" />
          </mxGeometry>
        </mxCell>
        <mxCell id="AUkNBDVFdlOXR4ARLZL_-124" value="대여일" style="ellipse;whiteSpace=wrap;html=1;" parent="1" vertex="1">
          <mxGeometry x="360" y="435" width="80" height="50" as="geometry" />
        </mxCell>
        <mxCell id="AUkNBDVFdlOXR4ARLZL_-125" value="대여번호" style="ellipse;whiteSpace=wrap;html=1;" parent="1" vertex="1">
          <mxGeometry x="250" y="440" width="80" height="50" as="geometry" />
        </mxCell>
        <mxCell id="AUkNBDVFdlOXR4ARLZL_-126" value="" style="endArrow=none;html=1;" parent="1" edge="1">
          <mxGeometry width="50" height="50" relative="1" as="geometry">
            <mxPoint x="290" y="440" as="sourcePoint" />
            <mxPoint x="310" y="422.5" as="targetPoint" />
          </mxGeometry>
        </mxCell>
        <mxCell id="AUkNBDVFdlOXR4ARLZL_-127" value="" style="endArrow=none;html=1;exitX=1;exitY=1;exitDx=0;exitDy=0;" parent="1" source="AUkNBDVFdlOXR4ARLZL_-79" target="AUkNBDVFdlOXR4ARLZL_-124" edge="1">
          <mxGeometry width="50" height="50" relative="1" as="geometry">
            <mxPoint x="400" y="360" as="sourcePoint" />
            <mxPoint x="450" y="310" as="targetPoint" />
          </mxGeometry>
        </mxCell>
        <mxCell id="AUkNBDVFdlOXR4ARLZL_-128" value="기증번호" style="ellipse;whiteSpace=wrap;html=1;" parent="1" vertex="1">
          <mxGeometry x="210" y="260" width="80" height="50" as="geometry" />
        </mxCell>
        <mxCell id="AUkNBDVFdlOXR4ARLZL_-129" value="" style="endArrow=none;html=1;entryX=0.5;entryY=1;entryDx=0;entryDy=0;exitX=0;exitY=0;exitDx=0;exitDy=0;" parent="1" source="AUkNBDVFdlOXR4ARLZL_-83" target="AUkNBDVFdlOXR4ARLZL_-128" edge="1">
          <mxGeometry width="50" height="50" relative="1" as="geometry">
            <mxPoint x="400" y="360" as="sourcePoint" />
            <mxPoint x="450" y="310" as="targetPoint" />
          </mxGeometry>
        </mxCell>
        <mxCell id="AUkNBDVFdlOXR4ARLZL_-130" value="기증일" style="ellipse;whiteSpace=wrap;html=1;" parent="1" vertex="1">
          <mxGeometry x="290" y="255" width="80" height="45" as="geometry" />
        </mxCell>
        <mxCell id="AUkNBDVFdlOXR4ARLZL_-131" value="" style="endArrow=none;html=1;exitX=1;exitY=0;exitDx=0;exitDy=0;" parent="1" source="AUkNBDVFdlOXR4ARLZL_-83" edge="1">
          <mxGeometry width="50" height="50" relative="1" as="geometry">
            <mxPoint x="280" y="350" as="sourcePoint" />
            <mxPoint x="330" y="300" as="targetPoint" />
          </mxGeometry>
        </mxCell>
        <mxCell id="AUkNBDVFdlOXR4ARLZL_-134" value="" style="shape=flexArrow;html=1;startArrow=block;entryX=0.5;entryY=0;entryDx=0;entryDy=0;exitX=0.5;exitY=1;exitDx=0;exitDy=0;endWidth=13;endSize=3.06;startWidth=0;startSize=0.33;width=7;fillColor=#000000;" parent="1" source="AUkNBDVFdlOXR4ARLZL_-1" target="AUkNBDVFdlOXR4ARLZL_-25" edge="1">
          <mxGeometry width="100" relative="1" as="geometry">
            <mxPoint x="480" y="380" as="sourcePoint" />
            <mxPoint x="580" y="380" as="targetPoint" />
          </mxGeometry>
        </mxCell>
        <mxCell id="AUkNBDVFdlOXR4ARLZL_-137" value="" style="shape=flexArrow;endArrow=classic;html=1;exitX=0;exitY=0.5;exitDx=0;exitDy=0;exitPerimeter=0;endWidth=16;endSize=2.36;width=5;fillColor=#000000;" parent="1" source="AUkNBDVFdlOXR4ARLZL_-12" edge="1">
          <mxGeometry width="50" height="50" relative="1" as="geometry">
            <mxPoint x="390" y="440" as="sourcePoint" />
            <mxPoint x="660" y="362" as="targetPoint" />
          </mxGeometry>
        </mxCell>
        <mxCell id="AUkNBDVFdlOXR4ARLZL_-138" value="" style="shape=flexArrow;endArrow=classic;html=1;entryX=0.5;entryY=1;entryDx=0;entryDy=0;exitX=0.5;exitY=0;exitDx=0;exitDy=0;endWidth=15;endSize=3.67;width=7;fillColor=#000000;" parent="1" source="AUkNBDVFdlOXR4ARLZL_-1" target="AUkNBDVFdlOXR4ARLZL_-36" edge="1">
          <mxGeometry width="50" height="50" relative="1" as="geometry">
            <mxPoint x="470" y="340" as="sourcePoint" />
            <mxPoint x="520" y="290" as="targetPoint" />
            <Array as="points">
              <mxPoint x="500" y="320" />
            </Array>
          </mxGeometry>
        </mxCell>
        <mxCell id="AUkNBDVFdlOXR4ARLZL_-139" value="관리" style="rhombus;whiteSpace=wrap;html=1;" parent="1" vertex="1">
          <mxGeometry x="120" y="150" width="90" height="60" as="geometry" />
        </mxCell>
        <mxCell id="AUkNBDVFdlOXR4ARLZL_-140" value="" style="endArrow=none;html=1;entryX=1;entryY=0.5;entryDx=0;entryDy=0;" parent="1" target="AUkNBDVFdlOXR4ARLZL_-139" edge="1">
          <mxGeometry width="50" height="50" relative="1" as="geometry">
            <mxPoint x="440" y="180" as="sourcePoint" />
            <mxPoint x="160" y="230" as="targetPoint" />
          </mxGeometry>
        </mxCell>
        <mxCell id="AUkNBDVFdlOXR4ARLZL_-141" value="" style="shape=flexArrow;endArrow=classic;html=1;entryX=0.5;entryY=1;entryDx=0;entryDy=0;endWidth=11;endSize=4.5;fillColor=#000000;width=9;" parent="1" target="AUkNBDVFdlOXR4ARLZL_-139" edge="1">
          <mxGeometry width="50" height="50" relative="1" as="geometry">
            <mxPoint x="170" y="340" as="sourcePoint" />
            <mxPoint x="220" y="290" as="targetPoint" />
          </mxGeometry>
        </mxCell>
        <mxCell id="AUkNBDVFdlOXR4ARLZL_-142" value="1" style="text;html=1;strokeColor=none;fillColor=none;align=center;verticalAlign=middle;whiteSpace=wrap;rounded=0;" parent="1" vertex="1">
          <mxGeometry x="240" y="370" width="30" height="20" as="geometry" />
        </mxCell>
        <mxCell id="AUkNBDVFdlOXR4ARLZL_-144" value="n" style="text;html=1;strokeColor=none;fillColor=none;align=center;verticalAlign=middle;whiteSpace=wrap;rounded=0;" parent="1" vertex="1">
          <mxGeometry x="370" y="375" width="40" height="20" as="geometry" />
        </mxCell>
        <mxCell id="AUkNBDVFdlOXR4ARLZL_-145" value="1" style="text;html=1;strokeColor=none;fillColor=none;align=center;verticalAlign=middle;whiteSpace=wrap;rounded=0;" parent="1" vertex="1">
          <mxGeometry x="235" y="330" width="30" height="20" as="geometry" />
        </mxCell>
        <mxCell id="AUkNBDVFdlOXR4ARLZL_-146" value="n" style="text;html=1;strokeColor=none;fillColor=none;align=center;verticalAlign=middle;whiteSpace=wrap;rounded=0;" parent="1" vertex="1">
          <mxGeometry x="394" y="330" width="40" height="20" as="geometry" />
        </mxCell>
        <mxCell id="AUkNBDVFdlOXR4ARLZL_-148" value="" style="endArrow=none;html=1;exitX=0.026;exitY=0.693;exitDx=0;exitDy=0;exitPerimeter=0;" parent="1" source="AUkNBDVFdlOXR4ARLZL_-99" edge="1">
          <mxGeometry width="50" height="50" relative="1" as="geometry">
            <mxPoint y="240" as="sourcePoint" />
            <mxPoint x="120" y="243" as="targetPoint" />
          </mxGeometry>
        </mxCell>
        <mxCell id="AUkNBDVFdlOXR4ARLZL_-149" value="n" style="text;html=1;strokeColor=none;fillColor=none;align=center;verticalAlign=middle;whiteSpace=wrap;rounded=0;" parent="1" vertex="1">
          <mxGeometry x="500" y="390" width="40" height="20" as="geometry" />
        </mxCell>
        <mxCell id="AUkNBDVFdlOXR4ARLZL_-150" value="1" style="text;html=1;strokeColor=none;fillColor=none;align=center;verticalAlign=middle;whiteSpace=wrap;rounded=0;" parent="1" vertex="1">
          <mxGeometry x="505" y="472.5" width="30" height="20" as="geometry" />
        </mxCell>
        <mxCell id="AUkNBDVFdlOXR4ARLZL_-151" value="" style="endArrow=none;html=1;" parent="1" edge="1">
          <mxGeometry width="50" height="50" relative="1" as="geometry">
            <mxPoint x="630" y="520" as="sourcePoint" />
            <mxPoint x="680" y="520" as="targetPoint" />
            <Array as="points">
              <mxPoint x="670" y="520" />
            </Array>
          </mxGeometry>
        </mxCell>
        <mxCell id="AUkNBDVFdlOXR4ARLZL_-152" value="n" style="text;html=1;strokeColor=none;fillColor=none;align=center;verticalAlign=middle;whiteSpace=wrap;rounded=0;" parent="1" vertex="1">
          <mxGeometry x="465" y="302.5" width="40" height="20" as="geometry" />
        </mxCell>
        <mxCell id="AUkNBDVFdlOXR4ARLZL_-153" value="1" style="text;html=1;strokeColor=none;fillColor=none;align=center;verticalAlign=middle;whiteSpace=wrap;rounded=0;" parent="1" vertex="1">
          <mxGeometry x="470" y="210" width="30" height="20" as="geometry" />
        </mxCell>
        <mxCell id="AUkNBDVFdlOXR4ARLZL_-154" value="1" style="text;html=1;strokeColor=none;fillColor=none;align=center;verticalAlign=middle;whiteSpace=wrap;rounded=0;" parent="1" vertex="1">
          <mxGeometry x="560" y="130" width="30" height="20" as="geometry" />
        </mxCell>
        <mxCell id="AUkNBDVFdlOXR4ARLZL_-155" value="1" style="text;html=1;strokeColor=none;fillColor=none;align=center;verticalAlign=middle;whiteSpace=wrap;rounded=0;" parent="1" vertex="1">
          <mxGeometry x="605" y="170" width="30" height="20" as="geometry" />
        </mxCell>
        <mxCell id="AUkNBDVFdlOXR4ARLZL_-157" value="1" style="text;html=1;strokeColor=none;fillColor=none;align=center;verticalAlign=middle;whiteSpace=wrap;rounded=0;" parent="1" vertex="1">
          <mxGeometry x="565" y="360" width="30" height="20" as="geometry" />
        </mxCell>
        <mxCell id="AUkNBDVFdlOXR4ARLZL_-158" value="n" style="text;html=1;strokeColor=none;fillColor=none;align=center;verticalAlign=middle;whiteSpace=wrap;rounded=0;" parent="1" vertex="1">
          <mxGeometry x="660" y="360" width="40" height="20" as="geometry" />
        </mxCell>
        <mxCell id="AUkNBDVFdlOXR4ARLZL_-159" value="1" style="text;html=1;strokeColor=none;fillColor=none;align=center;verticalAlign=middle;whiteSpace=wrap;rounded=0;" parent="1" vertex="1">
          <mxGeometry x="250" y="180" width="30" height="20" as="geometry" />
        </mxCell>
        <mxCell id="AUkNBDVFdlOXR4ARLZL_-160" value="n" style="text;html=1;strokeColor=none;fillColor=none;align=center;verticalAlign=middle;whiteSpace=wrap;rounded=0;" parent="1" vertex="1">
          <mxGeometry x="160" y="235" width="40" height="20" as="geometry" />
        </mxCell>
        <mxCell id="AUkNBDVFdlOXR4ARLZL_-162" value="since" style="ellipse;whiteSpace=wrap;html=1;" parent="1" vertex="1">
          <mxGeometry x="20" y="70" width="90" height="50" as="geometry" />
        </mxCell>
        <mxCell id="AUkNBDVFdlOXR4ARLZL_-164" value="" style="endArrow=none;html=1;entryX=1;entryY=1;entryDx=0;entryDy=0;" parent="1" target="AUkNBDVFdlOXR4ARLZL_-162" edge="1">
          <mxGeometry width="50" height="50" relative="1" as="geometry">
            <mxPoint x="150" y="160" as="sourcePoint" />
            <mxPoint x="420" y="300" as="targetPoint" />
          </mxGeometry>
        </mxCell>
        <mxCell id="AUkNBDVFdlOXR4ARLZL_-165" value="보관위치" style="ellipse;whiteSpace=wrap;html=1;" parent="1" vertex="1">
          <mxGeometry x="790" y="235" width="80" height="40" as="geometry" />
        </mxCell>
        <mxCell id="AUkNBDVFdlOXR4ARLZL_-166" value="" style="endArrow=none;html=1;exitX=0.5;exitY=0;exitDx=0;exitDy=0;exitPerimeter=0;" parent="1" source="AUkNBDVFdlOXR4ARLZL_-12" edge="1">
          <mxGeometry width="50" height="50" relative="1" as="geometry">
            <mxPoint x="777" y="330" as="sourcePoint" />
            <mxPoint x="827" y="280" as="targetPoint" />
          </mxGeometry>
        </mxCell>
      </root>
    </mxGraphModel>
  </diagram>
</mxfile>
